<?xml version="1.0" encoding="UTF-8" standalone="no"?>
<!-- Created with Inkscape (http://www.inkscape.org/) -->

<svg
   version="1.1"
   id="svg15825"
   xml:space="preserve"
   width="2666.6667"
   height="2680.5601"
   viewBox="0 0 2666.6667 2680.5601"
   sodipodi:docname="corgiemacs_logo.svg"
   inkscape:version="1.1.1 (1:1.1+202109281944+c3084ef5ed)"
   xmlns:inkscape="http://www.inkscape.org/namespaces/inkscape"
   xmlns:sodipodi="http://sodipodi.sourceforge.net/DTD/sodipodi-0.dtd"
   xmlns="http://www.w3.org/2000/svg"
   xmlns:svg="http://www.w3.org/2000/svg"><defs
     id="defs15829" /><sodipodi:namedview
     id="namedview15827"
     pagecolor="#505050"
     bordercolor="#ffffff"
     borderopacity="1"
     inkscape:pageshadow="0"
     inkscape:pageopacity="0"
     inkscape:pagecheckerboard="1"
     showgrid="false"
     inkscape:zoom="0.33537767"
     inkscape:cx="1334.3166"
     inkscape:cy="1340.28"
     inkscape:window-width="3840"
     inkscape:window-height="2083"
     inkscape:window-x="1920"
     inkscape:window-y="0"
     inkscape:window-maximized="1"
     inkscape:current-layer="g15831" /><g
     id="g15831"
     inkscape:groupmode="layer"
     inkscape:label="ink_ext_XXXXXX"
     transform="matrix(1.3333333,0,0,-1.3333333,0,2680.56)"><path
       d="M 0,0 H 2000 V 2010.42 H 0 V 0"
       style="fill:#f9d70a;fill-opacity:1;fill-rule:evenodd;stroke:none;stroke-width:0.1"
       id="path15835" /><path
       d="m 1455.92,779.18 c 4.89,1.34 9.99,2.04 15.19,2.04 h 82.77 c 17.6,0 34.01,-7.91 45.04,-21.69 10.93,-13.68 15.15,-31.77 11.4,-48.9 l -35.85,-163.6 c 4.23,-1.78 8.27,-4.07 12.02,-6.85 16.39,-12.15 25.15,-31.82 23.25,-52.19 -6.08,-65.23 -56.65,-108.8 -121.17,-108.8 -11.05,0 -22.03,1.26 -32.65,3.91 v -71.32 c 0,-37.45 -30.4,-68 -67.65,-68 h -116.82 c -11.61,-2.28 -23.43,-3.31 -35.26,-3.31 -10.59,0 -21.19,1.07 -31.55,3.31 H 643.86 c -37.251,0 -67.649,30.55 -67.649,68 v 71.73 c -42.076,-9.04 -87.098,-6.52 -124.426,16.43 -44.902,27.62 -63.445,75.58 -63.445,126.82 0,114.68 67.704,240.96 187.871,257.7 v 378.49 c -43.542,64.18 -50.239,146.06 -33.412,220.62 5.105,22.63 12.177,44.75 20.756,66.28 -22.749,60.67 -42.097,108.43 -39.266,176.73 0.831,20.03 4.108,39.93 9.395,59.25 22.216,81.17 86.588,168.51 179.073,164.4 33.674,-1.5 64.529,-15.63 88.805,-38.95 16.048,-15.41 30.46,-32.24 44.781,-49.22 h 253.167 c 9.48,7.64 19.16,15.01 29.21,21.88 27.39,18.71 60.97,27.74 93.97,23.69 34.67,-4.26 64.19,-20.71 87.73,-45.57 h 45.8 c 54.93,0 99.7,-45 99.7,-100.21 v -418.6 c 18.03,-46.3 16.4,-96.36 0,-142.93 v -46.03 c 1.09,-9.92 1.6,-19.93 1.31,-29.9 -0.21,-7.34 -0.65,-14.67 -1.31,-21.98 V 779.18"
       style="fill:#ffffff;fill-opacity:1;fill-rule:evenodd;stroke:none;stroke-width:0.1"
       id="path15837" /><path
       d="m 675.907,750.69 h 680.313 c 27.94,0 50.79,22.98 50.79,51.06 v 860.1 c 0,28.08 -22.85,51.06 -50.79,51.06 H 675.907 c -27.936,0 -50.793,-22.98 -50.793,-51.06 v -860.1 c 0,-28.08 22.857,-51.06 50.793,-51.06"
       style="fill:#321913;fill-opacity:1;fill-rule:evenodd;stroke:none;stroke-width:0.1"
       id="path15839" /><path
       d="m 1023.99,1650.95 c 3.77,0.51 7.46,1.41 11.12,2.66 17.9,6.1 35.91,20.55 50.3,32.55 23.45,19.54 45.5,39.83 70.8,57.12 17.87,12.21 38.98,18.2 60.56,15.55 82.71,-10.14 115.34,-126.45 106.59,-196.94 -8.64,-69.72 -42.56,-114.92 -74.82,-172.76 6.66,-25.74 10.36,-52.88 10.62,-79.6 13.12,2.8 27.05,3.5 41.57,1.77 44.61,-5.33 83.77,-33.39 104.1,-73.55 23.97,-47.35 17.6,-100.74 -6.14,-146.71 6.57,-22.68 10.22,-45.86 9.66,-65.23 -0.93,-32.13 -7.08,-64.34 -16.62,-94.99 -20.64,-66.28 -45.14,-130.71 -66.54,-196.5 -12.2,-37.51 -50.94,-50.11 -86.48,-50.26 -27.61,-0.11 -61.69,7.29 -78.98,29.15 -27.84,-34.45 -89.93,-37.48 -126.94,-19.62 -2.92,1.41 -5.7,3 -8.34,4.75 -32.595,-21.69 -82.363,-23.44 -116.992,-7.09 -12.937,-4.7 -26.993,-6.95 -40.75,-7.35 -39.131,-1.13 -91.119,12.28 -97.19,59.04 -1.305,10.04 0.105,19.97 3.774,29.05 -2.489,11.71 -9.372,29.14 -14.409,34.7 -8.149,8.64 -17.521,16.76 -26.123,25.01 -13.495,12.95 -26.258,26.39 -37.665,41.25 -32.006,41.73 -48.68,88.59 -48.403,141.54 0.265,50.44 4.274,93.94 -5.015,144.62 -0.16,0.88 -0.299,1.76 -0.416,2.64 -54.508,51.26 -68.729,131.36 -50.773,210.95 5.931,26.27 14.792,51.51 25.688,75.98 -21.395,58.86 -45.864,107.41 -43.024,175.86 0.674,16.29 3.385,32.54 7.683,48.25 15.77,57.61 62.01,131.34 129.76,128.33 21.833,-0.97 41.478,-10.29 57.179,-25.37 23.544,-22.62 42.751,-47.92 64.152,-72.33 12.212,-13.93 26.07,-28.05 37.058,-43.12 51.156,9.55 105.189,4.67 155.006,-9.35"
       style="fill:#321913;fill-opacity:1;fill-rule:evenodd;stroke:none;stroke-width:0.1"
       id="path15841" /><path
       d="m 1319.48,1151.02 c -5.08,5.45 -10.73,10.42 -16.95,14.85 -2,1.42 -1.63,3.11 -0.05,4.17 8.29,5.57 20.17,-7.16 17,-19.02 z M 1154.01,846.29 c -13.27,-39.19 -25.31,-73.17 -32.85,-96.79 -6.8,-21.32 -71.36,-15.01 -71.36,-3.03 0,10.67 9.04,3.88 6.04,18.51 -2.5,12.18 -5.38,28.95 -8.51,43.77 46.81,9.6 71.99,25.7 110.53,50.42 z M 919.131,746.85 c 1.282,-17.11 79.044,-24.52 86.639,6.68 3.3,13.55 8.32,35.4 11.18,53.01 -43.314,-6.5 -88.134,-3.55 -131.822,11.88 -12.947,4.57 -5.585,18.47 4.538,14.97 39.182,-13.54 75.846,-18.06 110.093,-15.7 31.751,2.2 65.071,11.37 93.861,24.8 24.28,12.01 45.49,24.82 66.98,41.51 26.34,19.62 42.35,39.85 69.68,34.6 10.64,-2.05 12.87,-10.06 10.78,-15.71 -1.86,-5.02 -7.05,-7.94 -14.31,-6.72 -19.16,3.24 -35.26,-8.73 -56.69,-24.68 l -2.54,-1.84 c 13.84,-4.73 20.97,-21.28 26.6,-43.94 3.93,-15.83 8.71,-43.12 12.05,-59.04 3.24,-15.47 -6.5,-8.3 -6.5,-19.58 0,-12.66 69.58,-19.33 76.92,3.21 13.83,42.51 41.71,116.78 66.33,195.87 8.28,26.58 13.31,54.31 14.31,81.13 0.95,41.12 -21.65,89.42 -32.97,104.17 -8.44,11 5.68,21.52 13.4,12.45 4.33,-5.09 10.04,-15.86 15.24,-29.98 66.44,126.93 -93.11,206.31 -143.14,90.93 -1.86,-4.3 -4.32,-9.32 -7.02,-14.75 -5.96,0.45 -11.06,1.16 -16.47,2.22 -20.76,-24.44 -48.1,-37.73 -60.61,-41.46 -11.03,-3.29 -16.45,11.63 -3.86,16.11 11.01,3.91 30.66,12.64 47.63,27.76 62.68,55.8 42.74,209.97 -14.93,268.84 -9.7,9.9 3.06,22.05 11.81,13.98 9.12,-8.41 25.31,-35.72 34.75,-68.5 28.02,51.07 63.95,97.77 71.56,159.17 9.15,73.8 -37.72,166.66 -87.66,132.53 -58.85,-40.21 -101.7,-100.78 -166.68,-101.7 -69.88,21.47 -132.976,18.1 -179.629,-0.81 -8.359,-3.38 -24.919,-5.82 -15.255,8.82 3.934,5.96 10.462,13.97 6.428,19.88 -7.849,11.5 -26.234,31.03 -36.264,42.48 -19.549,22.29 -38.485,47.4 -61.115,69.14 -43.654,41.93 -105.124,-41.88 -108.203,-116.18 -2.685,-64.74 27.893,-118.72 47.133,-176.64 -12.643,-25.46 -24.054,-53.57 -31.015,-84.43 -17.95,-79.54 1.218,-161.48 85.141,-191.33 12.593,-4.47 7.173,-19.39 -3.858,-16.11 -6.722,2.01 -17.718,6.77 -29.675,14.53 11.364,-62 6.069,-113.88 5.86,-154.21 -0.5,-94.93 68.475,-140.66 98.174,-172.17 16.144,-17.13 30.572,-57.69 29.287,-80.62 -0.125,-2.29 -1.289,-4.21 -2.71,-5.8 -17.897,-20.02 69.547,-32.23 84.412,-2.95 4.614,12.46 3.608,31.54 -3.845,43.04 -5.134,7.93 7.736,13.4 14.963,4.83 8.47,-10.04 10.847,-35.67 3.961,-46.42 -1.458,-2.28 -3.128,-4.72 -2.939,-7.27 v 0"
       style="fill:#f68b2a;fill-opacity:1;fill-rule:evenodd;stroke:none;stroke-width:0.1"
       id="path15843" /><path
       d="m 941.276,1581.72 c -35.887,3 -73.905,-19.77 -60.368,-72.76 4.668,-18.29 12.788,-34.88 16.434,-54.93 13.379,-73.55 -62.462,-74.51 -107.467,-51.02 -15.51,8.09 -30.638,21.71 -47.263,25.78 -60.302,14.75 -84.862,-62.86 -70.132,-125.7 20.699,-88.26 84.17,-79.57 67.03,-195.14 -7.661,-51.65 -11.733,-105.56 -1.167,-143.47 19.414,-69.65 75.655,-113.73 141.017,-134.37 1.875,2.96 5.817,4.83 10.306,3.28 39.09,-13.51 75.673,-18.04 109.848,-15.72 6.546,0.64 13.026,1.47 19.396,2.53 1.8,0.1 3.59,0.24 5.37,0.4 24.41,4.12 47.53,11.71 69.38,21.91 9.05,4.48 18.47,9.54 28.48,15.12 13.33,7.94 26.15,16.81 38.46,26.37 9.15,6.81 17.05,13.7 24.61,19.57 -19.17,6.79 -38.98,-5.49 -53.6,-15.35 -21.18,-14.28 -44.11,-34.67 -68.73,-39.5 -37.64,-7.39 -69.624,15.51 -44.04,80.13 12.87,32.52 34.89,85.85 61.41,141.57 17.56,36.91 -1.17,72.28 -30.69,71.22 -10.16,-0.36 -17.03,1.3 -5.76,6.31 39.01,17.35 90.6,48.38 116.89,114.4 23.87,59.93 15.42,139.98 -46.48,135.43 -17.06,-1.26 -34.22,-12.18 -50.84,-17.59 -48.25,-15.71 -122.891,-2.19 -97.627,68.13 6.884,19.17 15.535,34.37 23.139,51.63 22.048,50.03 -11.716,78.78 -47.606,81.77"
       style="fill:#ffffff;fill-opacity:1;fill-rule:evenodd;stroke:none;stroke-width:0.1"
       id="path15845" /><path
       d="m 895.099,1153.7 c -19.264,7.23 -37.108,-28.65 -5.302,-37.45 22.453,-6.2 74.11,7.96 111.553,4.9 128.69,-10.53 -106.402,-214.85 -33.735,-303.63 10.858,-0.63 21.492,-0.55 31.899,0.15 6.546,0.64 13.026,1.47 19.396,2.53 1.8,0.1 3.59,0.24 5.37,0.4 24.41,4.12 47.53,11.71 69.38,21.91 9.05,4.48 18.47,9.54 28.48,15.12 13.33,7.94 26.15,16.81 38.46,26.37 9.15,6.81 17.05,13.7 24.61,19.57 -19.17,6.79 -38.98,-5.49 -53.6,-15.35 -21.18,-14.28 -44.11,-34.67 -68.73,-39.5 -37.64,-7.39 -69.624,15.51 -44.04,80.13 12.87,32.52 34.89,85.85 61.41,141.57 17.56,36.91 -1.17,72.28 -30.69,71.22 -10.16,-0.36 -17.03,1.3 -5.76,6.31 39.01,17.35 90.6,48.38 116.89,114.4 23.87,59.93 15.42,139.98 -46.48,135.43 -17.06,-1.26 -34.22,-12.18 -50.84,-17.59 -48.25,-15.71 -122.891,-2.19 -97.627,68.13 6.884,19.17 15.535,34.37 23.139,51.63 -31.923,-38.27 -100.957,-132.71 -18.026,-157.83 24.13,-7.31 51.864,-7.49 73.144,-11.1 102.78,-17.47 39.03,-247.95 -148.901,-177.32"
       style="fill:#e9e8e7;fill-opacity:1;fill-rule:evenodd;stroke:none;stroke-width:0.1"
       id="path15847" /><path
       d="m 1083.99,1422.47 c -4.86,0 -8.8,-3.9 -8.8,-8.72 0,-4.81 3.94,-8.72 8.8,-8.72 4.87,0 8.8,3.91 8.8,8.72 0,4.82 -3.93,8.72 -8.8,8.72 z m -25.13,95.55 c -4.86,0 -8.8,-3.91 -8.8,-8.72 0,-4.82 3.94,-8.73 8.8,-8.73 4.87,0 8.81,3.91 8.81,8.73 0,4.81 -3.94,8.72 -8.81,8.72 z m 219.6,-570.92 c 4.13,0 7.47,-3.31 7.47,-7.4 0,-4.1 -3.34,-7.41 -7.47,-7.41 -4.13,0 -7.48,3.31 -7.48,7.41 0,4.09 3.35,7.4 7.48,7.4 z m 8.21,37.42 c 6.37,0 11.54,-5.12 11.54,-11.43 0,-6.31 -5.17,-11.43 -11.54,-11.43 -6.37,0 -11.54,5.12 -11.54,11.43 0,6.31 5.17,11.43 11.54,11.43 z m -21.19,42.63 c 7.29,0 13.2,-6.08 13.2,-13.59 0,-7.5 -5.91,-13.59 -13.2,-13.59 -7.3,0 -13.21,6.09 -13.21,13.59 0,7.51 5.91,13.59 13.21,13.59 z m -28.72,-25.81 c 4.87,0 8.8,-3.9 8.8,-8.72 0,-4.81 -3.93,-8.72 -8.8,-8.72 -4.86,0 -8.8,3.91 -8.8,8.72 0,4.82 3.94,8.72 8.8,8.72 z m 82.72,149.68 c -5.08,5.45 -10.73,10.42 -16.95,14.85 -2,1.42 -1.63,3.11 -0.05,4.17 8.29,5.57 20.17,-7.16 17,-19.02 z m -86.09,-358.48 c -4.13,0 -7.47,-3.32 -7.47,-7.41 0,-4.09 3.34,-7.41 7.47,-7.41 1.93,0 3.68,0.72 5.01,1.91 0.93,-21.23 0.36,-39.8 -6.87,-43.98 19.38,-1.11 41.13,2.59 45.06,14.65 13.83,42.51 41.71,116.78 66.33,195.87 8.28,26.58 13.31,54.31 14.31,81.13 0.95,41.12 -21.65,89.42 -32.97,104.17 -8.44,11 5.68,21.52 13.4,12.45 1.84,-2.17 3.93,-5.35 6.12,-9.38 9.42,25 -0.7,41.7 -16.27,45.13 -55.56,12.24 -46.61,-88.63 -102.16,-115.74 -28.19,-13.76 -85.55,0.12 -94.3,19.44 -2.06,4.55 -1.93,10.7 3.43,13.86 22.78,13.41 52.64,62.16 68.26,92.89 -5.96,0.45 -11.06,1.16 -16.47,2.22 -17.8,-20.95 -40.43,-33.71 -54.41,-39.27 10.15,-12.42 -1.26,-34.1 -21.28,-42.18 -7.37,-2.97 -13.03,-5.84 -14.51,-17.18 -0.75,-5.82 -0.19,-13.32 1.8,-21.28 13.91,-55.82 68.52,-66.58 116.97,-53.21 1.82,-7.18 8.17,-12.47 15.72,-12.47 8.97,0 16.25,7.48 16.25,16.72 0,2.68 -0.62,5.21 -1.71,7.46 51.55,21.85 69.54,-34.16 55.66,-86.99 -10.97,-41.7 -33.91,-66.11 -50.31,-84.43 -11.94,-13.34 -15.09,-23.23 -14.17,-42.92 0.38,-8.09 0.99,-16.82 1.51,-25.47 -1.24,0.89 -2.75,1.42 -4.4,1.42 z m -107.51,208.25 c 4.86,0 8.8,-3.9 8.8,-8.71 0,-4.82 -3.94,-8.72 -8.8,-8.72 -4.86,0 -8.81,3.9 -8.81,8.72 0,4.81 3.95,8.71 8.81,8.71 z M 946.181,797.52 c 2.237,0 4.243,-0.97 5.615,-2.51 0.168,3.21 0.311,6.29 0.443,9.16 21.726,-1.74 43.397,-0.83 64.711,2.37 -2.86,-17.61 -7.93,-39.44 -11.22,-53 -5.18,-21.25 -42.923,-24.59 -66.858,-19.15 1.52,0.45 2.986,0.79 4.207,1.64 4.368,3.04 6.747,26.71 8.122,48.6 -1.326,-1.19 -3.088,-1.92 -5.02,-1.92 -4.132,0 -7.48,3.31 -7.48,7.41 0,4.09 3.348,7.4 7.48,7.4 z m 207.829,48.77 3.85,12.88 c -38.54,-24.72 -63.72,-40.82 -110.53,-50.42 3.13,-14.82 6.01,-31.59 8.51,-43.77 3,-14.63 -6.04,-7.84 -6.04,-18.51 0,-11.98 64.56,-18.29 71.36,3.03 7.54,23.62 19.58,57.6 32.85,96.79 z m -71.72,651.28 c 0.91,0 1.8,-0.12 2.65,-0.32 -41.25,97.25 -134.295,128.89 -259.551,82.81 -20.187,-7.43 -36.871,-8.84 -39.019,0.62 -1.497,6.6 5.89,14.55 11.547,19.6 18.871,16.82 22.014,35.16 6.607,56.89 9.296,-10.34 19.844,-22.22 25.3,-30.21 4.034,-5.91 -2.494,-13.92 -6.428,-19.88 -9.664,-14.64 6.862,-12.11 15.255,-8.82 58.67,23.03 109.749,22.28 179.629,0.81 64.98,0.92 107.83,61.49 166.68,101.7 49.94,34.13 96.81,-58.73 87.66,-132.53 -7.61,-61.4 -43.54,-108.1 -71.56,-159.17 -3.83,13.33 -8.79,25.75 -13.93,36.37 56.9,64.26 73.73,126.91 62.52,174.1 -10.48,44.13 -43.81,68.66 -76.95,25.29 -22.53,-29.49 -39.52,-79.69 -55.15,-99.47 21.91,-20.25 39.79,-44.7 53.25,-72.76 -1.62,2.05 -3.13,3.71 -4.49,4.97 -8.75,8.07 -21.51,-4.08 -11.81,-13.98 57.67,-58.87 77.61,-213.04 14.93,-268.84 -16.97,-15.12 -36.62,-23.85 -47.63,-27.76 -8,-2.84 -8.73,-9.89 -5.38,-13.82 -19.06,-8.68 -36.08,-13.32 -50.36,-15.13 -4.91,2.52 -10.48,3.81 -16.5,3.6 -10.16,-0.36 -17.02,1.3 -5.76,6.31 39.01,17.35 90.6,48.38 116.89,114.4 23.87,59.93 15.42,139.98 -46.48,135.43 -2.31,-0.17 -4.63,-0.52 -6.95,-1.01 -2.25,31.19 -7.61,59.01 -15.82,83.33 -2.03,-2.85 -5.37,-4.71 -9.15,-4.71 -6.18,0 -11.19,4.97 -11.19,11.09 0,6.12 5.01,11.09 11.19,11.09 v 0"
       style="fill:#f36531;fill-opacity:1;fill-rule:evenodd;stroke:none;stroke-width:0.1"
       id="path15849" /><path
       d="M 675.907,643.95 H 1369.59 V 750.69 H 675.907 V 643.95"
       style="fill:#ffffff;fill-opacity:1;fill-rule:evenodd;stroke:none;stroke-width:0.1"
       id="path15851" /><path
       d="m 1134.48,1097.23 c -5.36,-3.16 -5.49,-9.32 -3.43,-13.86 4.53,-10.02 20.43,-21.04 40.25,-25.04 18.42,-3.71 40.48,-1.02 54.05,5.6 55.54,27.11 46.6,127.98 102.15,115.74 15.58,-3.43 25.7,-20.13 16.28,-45.13 2.97,-5.47 6.13,-12.48 9.12,-20.6 66.44,126.93 -93.11,206.31 -143.14,90.93 -11.47,-26.45 -48.33,-91.77 -75.28,-107.64"
       style="fill:#ffffff;fill-opacity:1;fill-rule:evenodd;stroke:none;stroke-width:0.1"
       id="path15853" /><path
       d="m 1244.09,1198.61 c -20.81,-31.52 -38.48,-78.91 -55.31,-104.91 -18.43,-28.48 -52.6,-19.58 -58.4,-1.34 -1.02,-2.91 -0.57,-6.25 0.67,-8.99 4.53,-10.02 20.43,-21.04 40.25,-25.04 18.42,-3.71 40.48,-1.02 54.05,5.6 55.54,27.11 46.6,127.98 102.15,115.74 15.58,-3.43 25.7,-20.13 16.28,-45.13 2.97,-5.47 6.13,-12.48 9.12,-20.6 19.93,38.07 19.52,71.87 7.83,97.42 -2.28,5 -5.01,9.69 -8.09,14.03 -35.19,32.65 -74.24,14.36 -98.88,-14.03 -3.54,-4.08 -6.78,-8.37 -9.67,-12.75"
       style="fill:#e9e8e7;fill-opacity:1;fill-rule:evenodd;stroke:none;stroke-width:0.1"
       id="path15855" /><path
       d="m 1112.33,1060.24 c -1.92,2.54 -1.31,6.09 1.34,7.91 2.66,1.83 6.36,1.25 8.27,-1.28 18.76,-24.81 48.49,-35.9 79.9,-30.28 42.23,7.55 72.44,41 85.11,78.82 2.41,7.2 15.56,3.04 12.5,-4.7 -14.08,-42.03 -49.06,-76.97 -95.42,-85.26 -35.95,-6.43 -70.25,6.43 -91.7,34.79"
       style="fill:#321913;fill-opacity:1;fill-rule:evenodd;stroke:none;stroke-width:0.1"
       id="path15857" /><path
       d="m 871.509,1389.25 c 0,0 5.437,44.71 -22.149,52.42 -36.025,10.06 -71.178,-40.17 -33.667,-54.95 18.804,-7.41 50.703,9.48 55.816,2.53 z m 107.005,-8.93 c 0,0 1.974,45 30.446,48.04 37.18,3.94 63.62,-51.43 24.19,-59.79 -19.76,-4.19 -48.452,17.75 -54.636,11.75 v 0"
       style="fill:#321913;fill-opacity:1;fill-rule:evenodd;stroke:none;stroke-width:0.1"
       id="path15859" /><path
       d="m 849.471,1434.87 c 2.629,1.18 7.363,-1.45 9.26,-4.85 2.35,-4.21 0.176,-8.72 -2.892,-9.71 -3.107,-1 -6.151,1.45 -7.742,4.8 -1.728,3.65 -1.751,8.34 1.374,9.76 z m 158.269,-13.21 c -2.4,1.61 -7.5,-0.21 -9.934,-3.25 -3.01,-3.76 -1.603,-8.57 1.26,-10.05 2.904,-1.5 6.304,0.4 8.424,3.45 2.3,3.32 3.1,7.94 0.25,9.85 v 0"
       style="fill:#ffffff;fill-opacity:1;fill-rule:evenodd;stroke:none;stroke-width:0.1"
       id="path15861" /><path
       d="m 920.323,1383.63 c 15.022,-1.65 37.809,-6.63 37.78,-21.69 -0.043,-22.46 -29.664,-33.22 -42.228,-32.17 -12.565,1.05 -40.016,16.57 -36.374,38.73 2.442,14.86 25.733,15.99 40.822,15.13"
       style="fill:#321913;fill-opacity:1;fill-rule:evenodd;stroke:none;stroke-width:0.1"
       id="path15863" /><path
       d="m 1048.94,1345.69 c 0.14,17.18 27.2,8.85 22,-8.18 -17.82,-58.32 -76.109,-70.73 -116.93,-107.08 -35.864,-31.92 -65.107,-28.72 -94.58,7.9 -34.301,42.61 -89.753,64.51 -97.76,124.99 -2.339,17.66 25.721,21.39 23.034,4.42 -13.953,-88.15 87.852,-84.03 129.133,-47.18 34.671,-43.19 134.403,-64.13 135.103,25.13"
       style="fill:#321913;fill-opacity:1;fill-rule:evenodd;stroke:none;stroke-width:0.1"
       id="path15865" /><path
       d="m 846.723,1260.95 c 2.93,-46.68 28.778,-71.48 56.171,-72.9 27.252,-3.14 56.814,17.03 67.362,62.59 5.097,22.01 -26.721,37.26 -58.906,39.78 -32.16,2.85 -66.044,-6.92 -64.627,-29.47"
       style="fill:#e93a34;fill-opacity:1;fill-rule:evenodd;stroke:none;stroke-width:0.1"
       id="path15867" /><path
       d="m 1117.55,1545.36 c 15.63,19.78 32.62,69.98 55.15,99.47 33.14,43.37 66.47,18.84 76.95,-25.29 11.21,-47.19 -5.62,-109.84 -62.52,-174.1 -5.62,11.61 -11.47,21.05 -16.33,27.16 -13.46,28.06 -31.34,52.51 -53.25,72.76 z m -344.108,28.76 c -19.348,35.13 -27.698,129.39 -67.256,134.71 -16.531,2.23 -37.685,-8.3 -50.871,-39.65 -19.189,-45.61 -12.211,-111.98 36.018,-186.67 1.814,3.34 3.668,6.62 5.549,9.84 19.885,33.97 45.696,61.55 76.56,81.77 v 0"
       style="fill:#ffffff;fill-opacity:1;fill-rule:evenodd;stroke:none;stroke-width:0.1"
       id="path15869" /><path
       d="m 733.445,1540.92 c -19.982,28.85 -25.468,70.53 -30.589,92.68 -3.886,16.84 -15.921,14.32 -20.416,-0.46 -6.912,-22.71 -3.298,-69.82 41.346,-102.86 3.131,3.66 6.347,7.2 9.659,10.64 z m 470.375,64.04 c -9.91,-23.48 -24.49,-71.06 -55.53,-94.36 2.07,-2.86 4.08,-5.78 6.02,-8.75 59.09,23.15 72.67,73.88 69.54,99.11 -1.89,15.35 -13.31,19.91 -20.03,4 v 0"
       style="fill:#cdccca;fill-opacity:1;fill-rule:evenodd;stroke:none;stroke-width:0.1"
       id="path15871" /><path
       d="m 766.083,534.72 c 0,-9.4 -1.715,-23.54 4.562,-31.29 4.28,-5.29 11.016,-6.74 17.508,-6.74 34.122,0 53.788,76.85 58.901,102.81 0.279,1.42 -0.348,2.51 -1.556,3.25 -9.784,6.03 -12.927,17.13 -12.927,28.05 0,13.58 5.06,26.64 16.524,34.49 1.022,0.7 1.531,1.53 1.455,2.78 -0.568,9.34 -3.393,18.38 -14.171,18.38 -28.722,0 -47.456,-51.98 -54.597,-74.21 -7.117,-22.14 -15.699,-54.35 -15.699,-77.52 z M 1210.6,360.75 c 0,-6.2 6.23,-10.74 12.05,-10.74 13.05,0 22.19,29.53 25.06,39.33 0.38,1.33 -0.06,2.39 -1.12,3.24 -1.3,1.04 -2.84,1.19 -4.34,0.47 -12.06,-5.74 -31.65,-16.82 -31.65,-32.3 z m 8.82,175.1 c 0,-9.7 -0.51,-23.31 6.72,-30.8 3.93,-4.07 9.25,-5.53 14.77,-5.53 18.74,0 34.64,21.7 39.35,38.24 l 29.53,132.68 c 0.1,0.45 0.1,0.71 0.02,1.16 -1.54,8.03 -8.14,12.02 -15.96,12.02 -32.21,0 -51.38,-46.79 -59.75,-72.19 -7.34,-22.22 -14.68,-52.17 -14.68,-75.58 z m -312.312,-93.23 35.364,161.22 c 0.268,1.22 -0.099,2.1 -1.022,2.92 -1.125,1.01 -2.415,1.25 -3.857,0.83 -7.393,-2.11 -14.882,-3.9 -22.435,-5.35 -1.539,-0.3 -2.757,-1.27 -2.954,-2.89 -9.749,-80.44 -55.997,-169.87 -147.59,-169.87 -40.219,0 -78.652,13.34 -94.524,53.58 -0.499,1.27 -1.434,1.9 -2.755,2.16 -1.423,0.28 -2.631,-0.02 -3.664,-1.06 -9.479,-9.53 -20.082,-17.94 -31.377,-25.19 -42.178,-27.09 -109.299,-45.19 -154.989,-17.09 -29.987,18.44 -40.062,51.25 -40.062,84.88 0,93.05 55.05,205.34 158.99,210.23 2.395,0.12 4.793,0.17 7.19,0.17 27.379,0 58.05,-7.43 69.051,-35.8 3.023,-7.79 4.179,-16.18 4.179,-24.51 0,-24.2 -11.508,-49.51 -39.101,-49.51 -8.609,0 -16.896,3.09 -24.137,7.61 -3.631,2.27 -5.129,6.7 -3.631,10.72 3.505,9.43 6.297,19.92 6.297,30.04 0,6.06 -0.704,15.29 -8.53,15.29 -17.635,0 -32.577,-30.42 -38.885,-43.95 -7.009,-15.04 -13.349,-31.17 -17.834,-47.15 -8.141,-29.01 -19.204,-91.06 13.782,-108.94 31.902,-17.29 76.793,23.18 97.306,44.3 0.607,0.62 0.856,1.12 0.899,1.99 2.87,58.66 26.894,123.37 71.456,162.84 27.58,24.43 60.593,37.07 97.406,37.07 29.247,0 54.679,-9.65 69.611,-36.2 8.879,-15.78 12.434,-34.59 13.357,-52.53 0.049,-1 0.393,-1.59 1.152,-2.23 0.911,-0.77 1.778,-1.01 2.965,-0.92 11.099,0.9 22.43,4.19 32.854,8.03 1.207,0.44 1.979,1.15 2.258,2.43 l 15.193,69.31 c 0.908,4.14 4.463,7.01 8.684,7.01 h 82.765 c 2.78,0 5.18,-1.15 6.92,-3.32 1.75,-2.18 2.36,-4.77 1.77,-7.5 l -0.74,-3.47 c -0.31,-1.43 0.29,-2.52 1.49,-3.28 1.44,-0.92 3.09,-0.91 4.51,0.04 15.49,10.39 31.83,17.53 50.76,17.53 20.52,0 37.57,-11.38 44.93,-30.68 1.01,-2.63 1.79,-5.34 2.37,-8.09 0.3,-1.41 1.26,-2.2 2.61,-2.57 1.51,-0.4 2.91,-0.1 4,1.04 2.77,2.88 5.64,5.67 8.62,8.35 24.79,22.29 54.37,34.78 87.85,34.78 13.4,0 29.41,-2.32 40.84,-9.72 1.14,-0.74 2.24,-0.87 3.53,-0.45 1.05,0.34 1.79,0.87 2.22,1.9 1.43,3.37 4.54,5.44 8.19,5.44 h 82.87 c 2.79,0 5.19,-1.16 6.93,-3.34 1.75,-2.19 2.35,-4.8 1.75,-7.53 L 1368.81,480.5 c -0.31,-1.37 0.23,-2.4 1.35,-3.2 1.37,-0.95 2.94,-1.01 4.39,-0.2 26.89,15.15 38.55,37.76 48.03,66.15 0.03,0.11 0.05,0.2 0.08,0.31 l 39.77,181.49 c 0.9,4.14 4.46,7.01 8.68,7.01 h 82.77 c 2.78,0 5.18,-1.15 6.93,-3.34 1.74,-2.18 2.35,-4.78 1.75,-7.52 l -42.2,-192.57 c -1.25,-5.27 -2.1,-10.66 -2.1,-16.09 0,-11.85 5.23,-13.02 16.19,-13.02 4.83,0 9.83,0.26 14.34,2.15 2.96,1.24 6.1,0.85 8.69,-1.06 2.58,-1.92 3.87,-4.82 3.57,-8.03 -3.72,-39.9 -33.16,-64.24 -72.48,-64.24 -26.38,0 -49.86,10.59 -62.16,34.94 -0.6,1.18 -1.52,1.73 -2.81,1.93 -1.37,0.21 -2.49,-0.09 -3.48,-1.07 -17.15,-17 -37.44,-27.8 -60.4,-34.74 -1.31,-0.4 -2.2,-1.16 -2.49,-2.53 l -7.39,-34.3 c -13.15,-61.03 -47.85,-102.94 -113.65,-102.94 -38.73,0 -73.81,20.38 -73.81,63.15 0,32.16 20.35,54.14 46.55,69.6 1.32,0.78 2.01,2.09 1.54,3.61 -0.53,1.68 -2.14,2.5 -3.82,2.44 -1.33,-0.06 -2.66,-0.09 -3.99,-0.09 -59.43,0 -86.17,44.52 -86.17,99.55 0,33.91 8.14,69.45 21.58,100.5 0.51,1.17 0.33,2.13 -0.48,3.11 -0.99,1.18 -2.31,1.56 -3.81,1.29 -3.4,-0.62 -6.86,-0.92 -10.31,-0.92 -9,0 -18.52,1.51 -24.09,9.43 -5.23,7.43 -4.45,17.64 -8.56,26.02 -0.71,1.46 -2.14,2.1 -3.72,2.02 -13.56,-0.79 -22.94,-8.39 -32.7,-17.08 -0.59,-0.52 -0.86,-0.93 -1.03,-1.7 l -46.12,-211.78 c -0.91,-4.15 -4.46,-7.02 -8.689,-7.02 h -82.768 c -2.786,0 -5.186,1.15 -6.929,3.34 -1.747,2.18 -2.354,4.78 -1.756,7.52 v 0"
       style="fill:#321913;fill-opacity:1;fill-rule:evenodd;stroke:none;stroke-width:0.1"
       id="path15873" /><path
       d="m 915.947,340.99 h -17.594 l 8.956,23.43 z m 136.873,-19.35 c -0.55,0.95 -1.21,1.87 -1.99,2.78 -3.01,3.39 -7.1,5.06 -12.32,5.06 -2.17,0 -4.18,-0.22 -6.02,-0.63 -0.28,-0.06 -0.6,-0.14 -0.96,-0.25 -0.38,-0.11 -0.62,-0.19 -0.73,-0.25 -7.2,-2.51 -13.44,-3.76 -18.68,-3.76 -4.21,0 -7.88,0.79 -11.05,2.37 -3.204,1.56 -5.78,3.93 -7.813,7.07 -2.006,3.14 -3.441,6.99 -4.279,11.52 -0.325,1.86 -0.458,3.69 -0.456,5.43 10e-4,1.88 0.138,3.61 0.467,5.22 1.5,6.87 4.491,12.11 8.975,15.77 4.486,3.66 9.856,5.49 16.106,5.49 3.56,0 6.44,-0.33 8.66,-0.96 4.83,-1.83 8.63,-2.97 11.37,-3.44 1.44,-0.22 3.29,-0.32 5.57,-0.32 2.77,0 5,0.46 6.74,1.36 1.71,0.9 3.42,2.48 5.13,4.72 0.52,0.63 0.98,1.3 1.38,2.01 -0.97,-3.3 -1.44,-6.6 -1.44,-9.92 -0.01,-5.41 1.18,-10.35 3.59,-14.88 2.41,-4.53 5.8,-8.24 10.2,-11.13 4.1,-2.54 9.07,-4.62 14.96,-6.23 8.57,-2.48 18,-4.38 26.24,-7.37 0.63,-0.19 1.07,-0.33 1.28,-0.46 4.18,-2.64 1.69,-6 -2.38,-7.41 -3.6,-1.26 -8.43,-0.81 -11.64,-0.1 -7.98,1.77 -15.29,3.62 -22.91,5.65 -1.9,0.44 -3.8,0.66 -5.73,0.66 -4.64,0 -8.53,-2.29 -11.6,-6.88 -0.24,-0.36 -0.46,-0.73 -0.67,-1.12 z m -352.922,-2.81 c -3.551,3.41 -7.756,5.13 -12.643,5.13 h -24.491 l 0.011,10.32 h 21.392 c 4.453,0 8.503,1.55 12.17,4.72 3.397,3.25 5.087,7.04 5.091,11.43 0.002,2.08 -0.403,4.1 -1.244,6.04 -0.868,1.93 -2.086,3.6 -3.663,4.99 -1.599,1.61 -3.499,2.87 -5.722,3.8 -2.228,0.92 -4.478,1.39 -6.761,1.39 h -21.23 l 0.01,10.01 h 25.764 c 2.905,0 5.597,0.74 8.069,2.24 2.472,1.48 4.429,3.5 5.898,6.06 1.469,2.57 2.202,5.38 2.206,8.41 0.003,3.08 -0.725,5.89 -2.189,8.41 -1.463,2.48 -3.417,4.47 -5.885,5.95 -2.47,1.44 -5.051,2.18 -7.738,2.18 h -44.801 c -3.61,0 -6.843,-0.82 -9.697,-2.51 -2.876,-1.67 -5.134,-3.99 -6.764,-6.91 -1.662,-2.95 -2.478,-6.2 -2.482,-9.77 l -0.082,-80.35 c -0.003,-2.46 0.484,-4.86 1.513,-7.21 1.678,-3.76 4.091,-6.77 7.268,-8.98 3.145,-2.21 6.457,-3.33 9.959,-3.33 h 43.852 c 4.561,0 8.66,1.64 12.331,4.89 1.895,1.81 3.241,3.85 4.039,6.13 0.968,-2.98 2.719,-5.56 5.269,-7.74 3.553,-3.03 7.654,-4.56 12.322,-4.56 2.008,0 4.103,0.33 6.219,0.96 3.396,1.23 6.195,3.19 8.423,5.92 2.231,2.73 3.535,5.81 3.918,9.28 l 5.619,47.49 15.126,-49.73 c 1.376,-4.86 3.413,-8.54 6.123,-11.03 2.715,-2.51 5.861,-3.76 9.475,-3.76 1.735,0 3.91,0.46 6.516,1.36 2.445,0.79 4.455,2.21 6.085,4.26 1.634,2.07 3.018,5.13 4.192,9.17 l 15.011,49.73 5.681,-47.49 c 0.349,-3.47 1.648,-6.55 3.872,-9.28 2.226,-2.73 5.072,-4.69 8.519,-5.92 2.065,-0.63 4.128,-0.96 6.191,-0.96 4.726,0 8.852,1.53 12.385,4.56 2.184,1.87 3.778,4.05 4.793,6.51 0.457,-1.14 1.049,-2.23 1.763,-3.26 1.98,-2.87 4.802,-5.08 8.464,-6.69 2.55,-1.12 5.159,-1.66 7.791,-1.66 3.883,0 7.413,1.23 10.621,3.65 3.232,2.46 5.544,5.76 6.988,9.94 l 1.986,5.43 h 39.534 l 1.816,-5.43 c 1.542,-4.29 3.902,-7.62 7.128,-10.02 3.203,-2.37 6.676,-3.57 10.448,-3.57 2.663,0 5.242,0.54 7.795,1.66 3.669,1.61 6.496,3.82 8.48,6.69 1.986,2.84 2.993,6.14 2.996,9.88 0.003,1.85 -0.368,4.15 -1.127,6.9 l 0.496,-0.68 c 3.037,-3.74 6.131,-6.9 9.303,-9.52 8.328,-7.08 18.126,-11.5 29.42,-13.27 4.29,-0.63 8.39,-0.95 12.24,-0.95 7.69,0 14.28,1.09 19.75,3.27 7.63,2.89 12.87,6.52 15.76,10.95 0.31,0.47 0.6,0.93 0.87,1.4 0.21,-0.46 0.44,-0.9 0.7,-1.32 1.49,-2.49 4.31,-5.02 8.46,-7.59 6.19,-3.74 15.74,-5.98 28.61,-6.71 3.29,-0.22 5.62,-0.33 7.01,-0.33 18.24,0 32.04,5.68 41.39,17.03 6.09,7.26 9.14,15.23 9.15,23.91 0,3.06 -0.34,5.95 -1.1,8.73 -0.73,2.76 -1.87,5.46 -3.44,8.08 -1.57,2.59 -3.47,4.97 -5.73,7.07 -2.25,2.1 -4.67,4.27 -7.75,5.4 -9.62,3.55 -26.68,7.47 -35.62,10.74 -5.29,1.93 -4.64,3.92 -3.85,5.6 0.97,2.1 4.33,3.1 9.51,2.03 5.39,-1.72 8.94,-2.44 14.79,-4.15 15.57,-4.53 29.09,2.48 24.68,19.84 -1,3.47 -3.01,6.36 -5.99,8.66 -2.99,2.32 -7.58,4.42 -13.74,6.27 -5.56,1.62 -11.35,2.4 -17.4,2.4 -2.91,0 -5.76,-0.16 -8.52,-0.46 -6.99,-0.87 -13.26,-2.62 -18.77,-5.29 -5.52,-2.65 -10.05,-5.95 -13.62,-9.91 -2.81,-3.07 -5.03,-6.43 -6.61,-10.13 0.2,1.08 0.31,2.22 0.31,3.42 0,2.86 -0.75,5.62 -2.27,8.24 -1.49,2.59 -3.77,4.99 -6.81,7.15 -3.06,2.16 -6.92,3.9 -11.59,5.19 -4.66,1.3 -9.96,1.96 -15.9,1.96 -4.08,0 -8.37,-0.33 -12.88,-0.95 -16.506,-2.35 -29.768,-9.69 -39.797,-22.08 -4.514,-5.66 -7.967,-11.66 -10.309,-18.02 -2.371,-6.39 -3.569,-12.72 -3.576,-18.99 -0.002,-1.08 0.033,-2.16 0.1,-3.25 l -16.204,42.19 c -2.598,6.66 -6.368,11.79 -11.332,15.4 -4.966,3.6 -10.64,5.37 -17.047,5.37 -6.381,0 -12.027,-1.77 -17.003,-5.37 -4.946,-3.61 -8.749,-8.74 -11.338,-15.4 l -28.095,-72.68 c -0.235,-0.66 -0.451,-1.31 -0.648,-1.94 l -12.507,74.92 c -0.784,4.64 -2.462,8.65 -5.01,12.01 -2.548,3.36 -5.805,5.76 -9.768,7.21 -3.446,1.25 -6.759,1.91 -9.938,1.91 -5.483,0 -10.372,-1.64 -14.694,-4.89 -4.316,-3.25 -7.307,-7.61 -8.945,-13.1 l -12.153,-41.43 -11.957,41.43 c -1.487,5.43 -4.388,9.8 -8.703,13.07 -4.314,3.28 -9.226,4.92 -14.737,4.92 -3.26,0 -6.571,-0.66 -9.965,-1.91 -3.912,-1.45 -7.201,-3.85 -9.811,-7.26 -2.638,-3.39 -4.298,-7.37 -5.01,-11.96 l -13.156,-76.92 -0.062,0.15 c -0.84,2.04 -2.112,3.79 -3.797,5.21 v 0"
       style="fill:#321913;fill-opacity:1;fill-rule:evenodd;stroke:none;stroke-width:0.1"
       id="path15875" /></g></svg>
