<?xml version="1.0" encoding="UTF-8" standalone="no"?>
<!-- Created with Inkscape (http://www.inkscape.org/) -->

<svg
   version="1.1"
   id="svg2"
   xml:space="preserve"
   width="2666.6667"
   height="2666.6667"
   viewBox="0 0 2666.6667 2666.6667"
   sodipodi:docname="corgiemacs_icon.svg"
   inkscape:export-filename="/tmp/corgi/path22.png"
   inkscape:export-xdpi="180"
   inkscape:export-ydpi="180"
   inkscape:version="1.1.1 (1:1.1+202109281944+c3084ef5ed)"
   xmlns:inkscape="http://www.inkscape.org/namespaces/inkscape"
   xmlns:sodipodi="http://sodipodi.sourceforge.net/DTD/sodipodi-0.dtd"
   xmlns="http://www.w3.org/2000/svg"
   xmlns:svg="http://www.w3.org/2000/svg"><defs
     id="defs6" /><sodipodi:namedview
     id="namedview4"
     pagecolor="#505050"
     bordercolor="#ffffff"
     borderopacity="1"
     inkscape:pageshadow="0"
     inkscape:pageopacity="0"
     inkscape:pagecheckerboard="1"
     showgrid="false"
     inkscape:zoom="0.47676673"
     inkscape:cx="1504.9288"
     inkscape:cy="1492.3441"
     inkscape:window-width="3840"
     inkscape:window-height="2083"
     inkscape:window-x="1920"
     inkscape:window-y="0"
     inkscape:window-maximized="1"
     inkscape:current-layer="g8" /><g
     id="g8"
     inkscape:groupmode="layer"
     inkscape:label="ink_ext_XXXXXX"
     transform="matrix(1.3333333,0,0,-1.3333333,0,2666.6667)"><path
       d="m 1023.07,1596.62 c 12.65,6.04 28.49,19.27 37.87,27.04 29.9,24.8 58.28,50.52 90.52,72.44 33.27,22.62 73.42,33.37 113.51,28.48 135.69,-16.55 195.28,-184.48 180.46,-303.37 -10.73,-86.03 -46.87,-141.4 -86.9,-210.82 1.81,-8.85 3.36,-17.76 4.65,-26.72 1.24,-0.12 2.47,-0.26 3.7,-0.4 73.6,-8.75 138.14,-54.5 171.7,-120.44 34.15,-67.1 31.04,-142.29 2.31,-209.68 5.64,-24.52 9.01,-50.21 8.29,-74.84 -1.28,-44.29 -9.63,-88.42 -22.85,-130.65 -25.08,-80.15 -55.03,-158.6 -81.12,-238.39 -23.01,-70.34 -90.97,-100.73 -160.38,-101.02 -32.09,-0.13 -66.34,5.89 -95.65,20.54 -48.98,-26.14 -113.05,-28.59 -164.26,-9.97 -45.333,-18.32 -99.503,-19.91 -145.768,-5.03 -14.824,-3.44 -30.048,-5.27 -45.208,-5.71 -79.583,-2.28 -166.155,33.62 -177.717,122.2 -1.849,14.16 -1.256,28.57 1.649,42.51 -0.737,1.92 -1.512,3.75 -2.265,5.3 -8.494,8.56 -17.788,16.57 -26.5,24.89 -18.522,17.67 -36.073,36.18 -51.723,56.48 -46.88,60.8 -71.4,130.2 -70.995,207.14 0.264,50.31 4.152,100.26 -2.875,150.13 -72.703,79.49 -87.543,192.06 -64.019,295.76 6.236,27.49 14.871,54.3 25.357,80.42 -27.205,72.21 -51.335,129.65 -47.831,213.73 1.007,24.13 4.977,48.13 11.382,71.41 26.856,97.62 104.509,203.01 216.626,198.05 40.683,-1.8 77.941,-18.78 107.263,-46.8 29.76,-28.44 54.382,-60.36 81.47,-91.1 8.476,-9.62 17.143,-18.92 25.575,-28.43 54.652,5.32 110.504,0.02 163.729,-13.15"
       style="fill:#ffffff;fill-opacity:1;fill-rule:evenodd;stroke:none;stroke-width:0.1"
       id="path14" /><path
       d="m 1023.5,1536.15 c 4.59,0.62 9.07,1.71 13.53,3.22 21.76,7.38 43.66,24.86 61.16,39.37 28.51,23.64 55.31,48.18 86.08,69.1 21.73,14.77 47.39,22 73.63,18.81 100.58,-12.27 140.24,-152.96 129.61,-238.23 -10.5,-84.32 -51.75,-138.99 -90.98,-208.96 8.1,-31.14 12.6,-63.96 12.91,-96.28 15.97,3.39 32.9,4.23 50.56,2.13 54.24,-6.44 101.84,-40.38 126.56,-88.95 29.15,-57.28 21.41,-121.86 -7.46,-177.47 7.99,-27.43 12.42,-55.47 11.75,-78.9 -1.13,-38.87 -8.61,-77.83 -20.21,-114.9 -25.09,-80.17 -54.88,-158.11 -80.9,-237.68 -14.84,-45.37 -61.94,-60.62 -105.15,-60.8 -33.58,-0.13 -75.01,8.82 -96.03,35.26 -33.86,-41.67 -109.35,-45.34 -154.36,-23.73 -3.54,1.7 -6.92,3.62 -10.13,5.75 -39.635,-26.24 -100.148,-28.36 -142.252,-8.58 -15.73,-5.69 -32.821,-8.41 -49.549,-8.89 -47.579,-1.36 -110.791,14.85 -118.172,71.41 -1.587,12.15 0.128,24.16 4.588,35.14 -3.025,14.17 -11.395,35.25 -17.521,41.97 -9.907,10.45 -21.302,20.28 -31.761,30.26 -16.409,15.66 -31.927,31.91 -45.797,49.9 -38.916,50.47 -59.188,107.15 -58.853,171.19 0.322,61.02 5.197,113.64 -6.098,174.94 -0.194,1.07 -0.363,2.13 -0.506,3.19 -66.275,62.01 -83.567,158.9 -61.734,255.16 7.212,31.78 17.986,62.31 31.233,91.91 -26.013,71.2 -55.764,129.92 -52.312,212.72 0.82,19.7 4.116,39.36 9.341,58.36 19.176,69.69 75.398,158.87 157.776,155.23 26.546,-1.18 50.433,-12.45 69.523,-30.69 28.627,-27.36 51.98,-57.96 78.001,-87.49 14.849,-16.85 31.699,-33.93 45.059,-52.16 62.201,11.55 127.899,5.65 188.464,-11.31"
       style="fill:#321913;fill-opacity:1;fill-rule:evenodd;stroke:none;stroke-width:0.1"
       id="path16" /><path
       d="m 1382.8,931.45 c -6.19,6.58 -13.05,12.6 -20.62,17.95 -2.43,1.73 -1.98,3.77 -0.06,5.05 10.09,6.73 24.53,-8.66 20.68,-23 z M 1181.6,562.84 c -16.14,-47.4 -30.78,-88.5 -39.94,-117.07 -8.27,-25.79 -86.77,-18.16 -86.77,-3.67 0,12.91 11,4.69 7.34,22.4 -3.04,14.72 -6.54,35.01 -10.34,52.93 56.91,11.62 87.53,31.1 134.39,60.99 z M 896.011,442.56 c 1.558,-20.69 96.109,-29.65 105.339,8.08 4.01,16.4 10.12,42.82 13.59,64.12 -52.656,-7.86 -107.153,-4.29 -160.273,14.37 -15.742,5.53 -6.792,22.35 5.516,18.12 47.642,-16.39 92.221,-21.85 133.862,-18.99 38.605,2.65 79.125,13.74 114.135,29.99 29.51,14.53 55.31,30.02 81.43,50.21 32.03,23.73 51.49,48.2 84.72,41.85 12.94,-2.48 15.65,-12.17 13.11,-19 -2.26,-6.07 -8.57,-9.61 -17.4,-8.13 -23.3,3.91 -42.87,-10.56 -68.93,-29.86 l -3.08,-2.22 c 16.82,-5.72 25.49,-25.74 32.33,-53.15 4.78,-19.15 10.6,-52.15 14.66,-71.42 3.94,-18.71 -7.91,-10.03 -7.91,-23.68 0,-15.31 84.61,-23.38 93.53,3.88 16.81,51.42 50.72,141.27 80.66,236.93 10.06,32.15 16.17,65.69 17.4,98.13 1.15,49.75 -26.33,108.17 -40.09,126.01 -10.27,13.3 6.9,26.03 16.29,15.05 5.27,-6.15 12.21,-19.18 18.52,-36.26 80.79,153.53 -113.21,249.55 -174.04,109.98 -2.26,-5.19 -5.25,-11.27 -8.53,-17.83 -7.24,0.54 -13.45,1.4 -20.02,2.68 -25.25,-29.55 -58.49,-45.63 -73.71,-50.15 -13.41,-3.98 -20,14.08 -4.69,19.49 13.39,4.74 37.28,15.29 57.92,33.58 76.21,67.49 51.96,253.97 -18.16,325.19 -11.79,11.97 3.72,26.67 14.36,16.9 11.09,-10.17 30.78,-43.2 42.26,-82.85 34.07,61.77 77.75,118.26 87.01,192.54 11.12,89.25 -45.87,201.57 -106.59,160.3 -71.56,-48.65 -123.66,-121.91 -202.67,-123.02 -84.963,25.98 -161.68,21.89 -218.405,-0.97 -10.164,-4.1 -30.3,-7.04 -18.549,10.66 4.784,7.2 12.722,16.9 7.817,24.05 -9.545,13.9 -31.9,37.53 -44.093,51.38 -23.77,26.97 -46.796,57.34 -74.311,83.63 -53.079,50.72 -127.82,-50.66 -131.562,-140.53 -3.267,-78.31 33.915,-143.6 57.306,-213.66 -15.37,-30.79 -29.245,-64.8 -37.71,-102.13 -21.824,-96.21 1.482,-195.33 103.524,-231.42 15.311,-5.42 8.72,-23.47 -4.69,-19.49 -8.175,2.43 -21.545,8.19 -36.083,17.57 13.816,-74.99 7.379,-137.75 7.124,-186.53 -0.607,-114.83 83.26,-170.14 119.371,-208.26 19.627,-20.71 37.17,-69.78 35.609,-97.51 -0.154,-2.77 -1.567,-5.09 -3.295,-7.01 -21.761,-24.22 84.563,-38.99 102.635,-3.58 5.611,15.07 4.388,38.16 -4.673,52.06 -6.243,9.59 9.406,16.21 18.193,5.85 10.299,-12.15 13.187,-43.15 4.816,-56.15 -1.773,-2.76 -3.803,-5.71 -3.573,-8.8 v 0"
       style="fill:#f68b2a;fill-opacity:1;fill-rule:evenodd;stroke:none;stroke-width:0.1"
       id="path18" /><path
       d="m 922.935,1452.42 c -43.633,3.62 -89.858,-23.91 -73.399,-88.02 5.675,-22.12 15.548,-42.19 19.982,-66.44 16.266,-88.97 -75.947,-90.13 -130.671,-61.71 -18.856,9.79 -37.251,26.26 -57.466,31.18 -73.32,17.84 -103.181,-76.03 -85.272,-152.04 25.166,-106.77 102.342,-96.25 81.501,-236.04 -9.314,-62.48 -14.267,-127.69 -1.418,-173.54 23.605,-84.25 91.987,-137.57 171.46,-162.53 2.282,3.58 7.073,5.84 12.531,3.97 47.53,-16.35 92.012,-21.83 133.565,-19.02 7.962,0.77 15.832,1.78 23.582,3.06 2.19,0.12 4.36,0.28 6.53,0.48 29.69,4.98 57.79,14.17 84.36,26.5 11.01,5.42 22.45,11.54 34.62,18.29 16.21,9.61 31.8,20.34 46.77,31.9 11.13,8.24 20.74,16.57 29.93,23.67 -23.32,8.21 -47.4,-6.65 -65.18,-18.57 -25.75,-17.27 -53.63,-41.93 -83.56,-47.77 -45.77,-8.94 -84.663,18.75 -53.56,96.92 15.65,39.34 42.43,103.85 74.67,171.24 21.36,44.65 -1.42,87.43 -37.31,86.15 -12.36,-0.44 -20.7,1.57 -7.01,7.63 47.44,20.99 110.16,58.52 142.13,138.38 29.02,72.49 18.75,169.32 -56.51,163.81 -20.75,-1.52 -41.61,-14.73 -61.82,-21.28 -58.66,-19 -149.422,-2.65 -118.705,82.42 8.37,23.18 18.89,41.56 28.135,62.44 26.81,60.52 -14.246,95.3 -57.885,98.92"
       style="fill:#ffffff;fill-opacity:1;fill-rule:evenodd;stroke:none;stroke-width:0.1"
       id="path20" /><path
       d="m 866.79,934.68 c -23.423,8.75 -45.12,-34.65 -6.446,-45.3 27.299,-7.5 90.108,9.63 135.63,5.93 156.486,-12.74 -129.369,-259.88 -41.012,-367.27 13.202,-0.75 26.131,-0.66 38.786,0.19 7.962,0.77 15.832,1.78 23.582,3.06 2.19,0.12 4.36,0.28 6.53,0.48 29.69,4.98 57.79,14.17 84.36,26.5 11.01,5.42 22.45,11.54 34.62,18.29 16.21,9.61 31.8,20.34 46.77,31.9 11.13,8.24 20.74,16.57 29.93,23.67 -23.32,8.21 -47.4,-6.65 -65.18,-18.57 -25.75,-17.27 -53.63,-41.93 -83.56,-47.77 -45.77,-8.94 -84.663,18.75 -53.56,96.92 15.65,39.34 42.43,103.85 74.67,171.24 21.36,44.65 -1.42,87.43 -37.31,86.15 -12.36,-0.44 -20.7,1.57 -7.01,7.63 47.44,20.99 110.16,58.52 142.13,138.38 29.02,72.49 18.75,169.32 -56.51,163.81 -20.75,-1.52 -41.61,-14.73 -61.82,-21.28 -58.66,-19 -149.422,-2.65 -118.705,82.42 8.37,23.18 18.89,41.56 28.135,62.44 -38.815,-46.28 -122.753,-160.51 -21.918,-190.91 29.34,-8.84 63.058,-9.05 88.938,-13.42 124.97,-21.13 47.46,-299.92 -181.05,-214.49"
       style="fill:#e9e8e7;fill-opacity:1;fill-rule:evenodd;stroke:none;stroke-width:0.1"
       id="path22" /><path
       d="m 1096.47,1259.79 c -5.92,0 -10.71,-4.72 -10.71,-10.55 0,-5.82 4.79,-10.55 10.71,-10.55 5.91,0 10.7,4.73 10.7,10.55 0,5.83 -4.79,10.55 -10.7,10.55 z m -30.56,115.57 c -5.91,0 -10.7,-4.72 -10.7,-10.55 0,-5.82 4.79,-10.55 10.7,-10.55 5.92,0 10.71,4.73 10.71,10.55 0,5.83 -4.79,10.55 -10.71,10.55 z m 267,-690.57 c 5.02,0 9.09,-4.01 9.09,-8.96 0,-4.95 -4.07,-8.96 -9.09,-8.96 -5.02,0 -9.09,4.01 -9.09,8.96 0,4.95 4.07,8.96 9.09,8.96 z m 9.99,45.25 c 7.74,0 14.02,-6.18 14.02,-13.82 0,-7.64 -6.28,-13.82 -14.02,-13.82 -7.75,0 -14.03,6.18 -14.03,13.82 0,7.64 6.28,13.82 14.03,13.82 z m -25.77,51.57 c 8.87,0 16.06,-7.36 16.06,-16.44 0,-9.07 -7.19,-16.43 -16.06,-16.43 -8.87,0 -16.06,7.36 -16.06,16.43 0,9.08 7.19,16.44 16.06,16.44 z m -34.91,-31.22 c 5.91,0 10.7,-4.72 10.7,-10.54 0,-5.83 -4.79,-10.55 -10.7,-10.55 -5.92,0 -10.7,4.72 -10.7,10.55 0,5.82 4.78,10.54 10.7,10.54 z m 100.58,181.06 c -6.19,6.58 -13.05,12.6 -20.62,17.95 -2.43,1.73 -1.98,3.77 -0.06,5.05 10.09,6.73 24.53,-8.66 20.68,-23 z M 1278.12,497.83 c -5.02,0 -9.09,-4.01 -9.09,-8.96 0,-4.95 4.07,-8.96 9.09,-8.96 2.34,0 4.47,0.87 6.09,2.3 1.13,-25.67 0.44,-48.14 -8.36,-53.19 23.56,-1.35 50.02,3.12 54.79,17.71 16.81,51.42 50.72,141.27 80.66,236.93 10.06,32.15 16.17,65.69 17.4,98.13 1.15,49.75 -26.33,108.17 -40.09,126.01 -10.27,13.3 6.9,26.03 16.29,15.05 2.24,-2.62 4.78,-6.47 7.44,-11.35 11.45,30.24 -0.85,50.45 -19.79,54.6 -67.54,14.8 -56.67,-107.21 -124.21,-140 -34.27,-16.64 -104.02,0.14 -114.66,23.51 -2.51,5.5 -2.35,12.95 4.17,16.77 27.7,16.22 64.01,75.19 83,112.36 -7.24,0.54 -13.45,1.4 -20.02,2.68 -21.65,-25.34 -49.16,-40.77 -66.17,-47.5 12.35,-15.01 -1.52,-41.24 -25.86,-51.02 -8.97,-3.59 -15.86,-7.07 -17.65,-20.78 -0.91,-7.04 -0.23,-16.11 2.18,-25.74 16.92,-67.51 83.32,-80.53 142.23,-64.36 2.22,-8.68 9.93,-15.08 19.11,-15.08 10.91,0 19.76,9.05 19.76,20.22 0,3.25 -0.75,6.31 -2.08,9.03 62.69,26.42 84.56,-41.33 67.68,-105.23 -13.33,-50.44 -41.23,-79.96 -61.18,-102.12 -14.51,-16.14 -18.34,-28.1 -17.22,-51.92 0.46,-9.79 1.21,-20.35 1.83,-30.81 -1.5,1.08 -3.34,1.72 -5.34,1.72 z m -130.73,251.9 c 5.91,0 10.7,-4.72 10.7,-10.54 0,-5.83 -4.79,-10.55 -10.7,-10.55 -5.91,0 -10.7,4.72 -10.7,10.55 0,5.82 4.79,10.54 10.7,10.54 z M 928.9,503.86 c 2.72,0 5.159,-1.18 6.827,-3.04 0.204,3.88 0.379,7.61 0.54,11.08 26.415,-2.11 52.765,-1.01 78.673,2.86 -3.47,-21.3 -9.63,-47.71 -13.64,-64.1 -6.29,-25.71 -52.185,-29.75 -81.287,-23.17 1.849,0.54 3.631,0.95 5.116,1.98 5.31,3.68 8.203,32.32 9.876,58.79 -1.613,-1.44 -3.756,-2.32 -6.105,-2.32 -5.023,0 -9.095,4.01 -9.095,8.96 0,4.95 4.072,8.96 9.095,8.96 z m 252.7,58.98 4.68,15.58 c -46.86,-29.89 -77.48,-49.37 -134.39,-60.99 3.8,-17.92 7.3,-38.21 10.34,-52.93 3.66,-17.71 -7.34,-9.49 -7.34,-22.4 0,-14.49 78.5,-22.12 86.77,3.67 9.16,28.57 23.8,69.67 39.94,117.07 z m -87.2,787.78 c 1.1,0 2.18,-0.13 3.21,-0.38 -50.15,117.64 -163.283,155.9 -315.58,100.17 -24.546,-9 -44.832,-10.69 -47.444,0.75 -1.819,7.98 7.162,17.59 14.041,23.7 22.945,20.36 26.767,42.54 8.034,68.82 11.303,-12.51 24.126,-26.88 30.762,-36.54 4.905,-7.15 -3.033,-16.85 -7.817,-24.05 -11.751,-17.7 8.343,-14.65 18.549,-10.66 71.337,27.85 133.442,26.95 218.405,0.97 79.01,1.11 131.11,74.37 202.67,123.02 60.72,41.27 117.71,-71.05 106.59,-160.3 -9.26,-74.28 -52.94,-130.77 -87.01,-192.54 -4.67,16.12 -10.69,31.15 -16.94,43.99 69.18,77.73 89.65,153.52 76.02,210.59 -12.75,53.38 -53.27,83.05 -93.57,30.6 -27.4,-35.68 -48.05,-96.4 -67.06,-120.33 26.65,-24.49 48.38,-54.06 64.75,-88.01 -1.97,2.48 -3.81,4.5 -5.46,6.01 -10.64,9.77 -26.15,-4.93 -14.36,-16.9 70.12,-71.22 94.37,-257.7 18.16,-325.19 -20.64,-18.29 -44.53,-28.84 -57.92,-33.58 -9.72,-3.44 -10.61,-11.97 -6.54,-16.72 -23.17,-10.49 -43.87,-16.11 -61.23,-18.3 -5.97,3.05 -12.74,4.62 -20.06,4.35 -12.36,-0.43 -20.7,1.59 -7.01,7.64 47.44,20.99 110.17,58.53 142.13,138.38 29.02,72.49 18.75,169.32 -56.51,163.81 -2.82,-0.2 -5.64,-0.63 -8.46,-1.22 -2.73,37.73 -9.25,71.38 -19.23,100.79 -2.47,-3.44 -6.53,-5.69 -11.12,-5.69 -7.52,0 -13.61,6.01 -13.61,13.41 0,7.41 6.09,13.41 13.61,13.41 v 0"
       style="fill:#f36531;fill-opacity:1;fill-rule:evenodd;stroke:none;stroke-width:0.1"
       id="path24" /><path
       d="m 1157.85,866.38 c -6.52,-3.82 -6.67,-11.27 -4.17,-16.77 5.51,-12.11 24.84,-25.45 48.95,-30.28 22.39,-4.49 49.2,-1.24 65.71,6.77 67.53,32.79 56.67,154.8 124.21,140 18.94,-4.15 31.24,-24.36 19.79,-54.6 3.61,-6.6 7.45,-15.08 11.08,-24.91 80.79,153.53 -113.21,249.55 -174.04,109.99 -13.94,-32 -58.76,-111.01 -91.53,-130.2"
       style="fill:#ffffff;fill-opacity:1;fill-rule:evenodd;stroke:none;stroke-width:0.1"
       id="path26" /><path
       d="m 1291.13,989.01 c -25.31,-38.12 -46.79,-95.45 -67.26,-126.9 -22.4,-34.45 -63.95,-23.69 -71,-1.63 -1.24,-3.51 -0.7,-7.55 0.81,-10.87 5.51,-12.11 24.84,-25.45 48.95,-30.28 22.39,-4.49 49.2,-1.24 65.71,6.77 67.53,32.79 56.67,154.8 124.21,140 18.94,-4.15 31.24,-24.36 19.79,-54.6 3.61,-6.6 7.45,-15.09 11.08,-24.91 24.24,46.06 23.74,86.94 9.53,117.84 -2.78,6.05 -6.09,11.72 -9.84,16.98 -42.79,39.48 -90.27,17.36 -120.22,-16.98 -4.31,-4.94 -8.25,-10.12 -11.76,-15.42"
       style="fill:#e9e8e7;fill-opacity:1;fill-rule:evenodd;stroke:none;stroke-width:0.1"
       id="path28" /><path
       d="m 1130.92,821.64 c -2.34,3.07 -1.59,7.36 1.63,9.57 3.23,2.21 7.73,1.5 10.06,-1.56 22.81,-30 58.95,-43.41 97.15,-36.62 51.35,9.14 88.08,49.6 103.48,95.35 2.93,8.7 18.92,3.66 15.2,-5.7 -17.12,-50.83 -59.65,-93.1 -116.03,-103.13 -43.7,-7.77 -85.4,7.78 -111.49,42.09"
       style="fill:#321913;fill-opacity:1;fill-rule:evenodd;stroke:none;stroke-width:0.1"
       id="path30" /><path
       d="m 838.107,1219.6 c 0,0 6.61,54.09 -26.931,63.41 -43.802,12.17 -86.545,-48.59 -40.935,-66.47 22.863,-8.96 61.649,11.47 67.866,3.06 z m 130.106,-10.8 c 0,0 2.401,54.44 37.017,58.11 45.21,4.77 77.35,-62.2 29.42,-72.32 -24.03,-5.07 -58.917,21.48 -66.437,14.21 v 0"
       style="fill:#321913;fill-opacity:1;fill-rule:evenodd;stroke:none;stroke-width:0.1"
       id="path32" /><path
       d="m 811.311,1274.78 c 3.196,1.44 8.952,-1.74 11.258,-5.86 2.858,-5.1 0.215,-10.55 -3.515,-11.74 -3.778,-1.21 -7.479,1.74 -9.414,5.8 -2.101,4.42 -2.129,10.09 1.671,11.8 z m 192.429,-15.97 c -2.91,1.94 -9.114,-0.25 -12.07,-3.93 -3.659,-4.56 -1.948,-10.37 1.532,-12.16 3.525,-1.82 7.668,0.49 10.238,4.17 2.8,4.02 3.77,9.6 0.3,11.92 v 0"
       style="fill:#ffffff;fill-opacity:1;fill-rule:evenodd;stroke:none;stroke-width:0.1"
       id="path34" /><path
       d="m 897.459,1212.8 c 18.267,-1.99 45.973,-8.01 45.938,-26.23 -0.053,-27.17 -36.07,-40.18 -51.346,-38.91 -15.278,1.27 -48.654,20.04 -44.227,46.84 2.968,17.98 31.289,19.35 49.635,18.3"
       style="fill:#321913;fill-opacity:1;fill-rule:evenodd;stroke:none;stroke-width:0.1"
       id="path36" /><path
       d="m 1053.85,1166.92 c 0.16,20.78 33.07,10.7 26.74,-9.9 -21.67,-70.55 -92.537,-85.55 -142.171,-129.52 -43.607,-38.62 -79.163,-34.75 -115,9.55 -41.705,51.54 -109.13,78.04 -118.865,151.18 -2.843,21.36 31.274,25.89 28.007,5.36 -16.965,-106.63 106.818,-101.64 157.013,-57.07 42.156,-52.24 163.426,-77.57 164.276,30.4"
       style="fill:#321913;fill-opacity:1;fill-rule:evenodd;stroke:none;stroke-width:0.1"
       id="path38" /><path
       d="m 807.97,1064.42 c 3.563,-56.47 34.991,-86.47 68.298,-88.19 33.136,-3.79 69.08,20.61 81.904,75.72 6.198,26.62 -32.489,45.06 -71.624,48.12 -39.103,3.43 -80.301,-8.38 -78.578,-35.65"
       style="fill:#e93a34;fill-opacity:1;fill-rule:evenodd;stroke:none;stroke-width:0.1"
       id="path40" /><path
       d="m 1137.26,1408.43 c 19.01,23.93 39.66,84.65 67.06,120.33 40.3,52.45 80.82,22.78 93.57,-30.6 13.63,-57.07 -6.84,-132.86 -76.03,-210.59 -6.83,14.04 -13.94,25.47 -19.85,32.85 -16.37,33.95 -38.1,63.52 -64.75,88.01 z m -418.393,34.79 c -23.523,42.49 -33.677,156.51 -81.775,162.94 -20.102,2.7 -45.821,-10.04 -61.853,-47.95 -23.333,-55.17 -14.849,-135.45 43.793,-225.8 2.206,4.04 4.461,8.01 6.746,11.9 24.178,41.09 55.564,74.45 93.089,98.91 v 0"
       style="fill:#ffffff;fill-opacity:1;fill-rule:evenodd;stroke:none;stroke-width:0.1"
       id="path42" /><path
       d="m 670.236,1403.06 c -24.296,34.9 -30.966,85.31 -37.193,112.11 -4.725,20.36 -19.36,17.32 -24.823,-0.56 -8.405,-27.47 -4.011,-84.45 50.272,-124.41 3.806,4.42 7.718,8.71 11.744,12.86 z m 571.924,77.46 c -12.05,-28.39 -29.77,-85.94 -67.52,-114.13 2.52,-3.46 4.96,-6.99 7.33,-10.59 71.84,28 88.35,89.37 84.55,119.89 -2.3,18.56 -16.19,24.08 -24.36,4.83 v 0"
       style="fill:#cdccca;fill-opacity:1;fill-rule:evenodd;stroke:none;stroke-width:0.1"
       id="path44" /></g></svg>
